# xmcd
#
# Track frame offsets:
#	150
#	11310
#	19524
#	31276
#	41316
#	53247
#	64782
#	76206
#	86151
#	98495
#	109461
#	118112
#	129131
#	137307
#	148999
#	162019
#	171550
#	183659
#	197756
#	210715
#
# Disc length: 2990 seconds
#
# Revision: 1
# Processed by: cddbd v1.5.1PL2 Copyright (c) Steve Scherf et al.
# Submitted via: audiograbber 1.83.01
#
DISCID=0b0bac14
DTITLE=Compilation CD - Superstars of Country
DYEAR=1900
DGENRE=Country
TTITLE0=Don Gibson - Sea of Heartbreak
TTITLE1=Don Gibson - Blue blue day
TTITLE2=Don Gibson - I can't stop loving you
TTITLE3=Don Gibson - Lonesome number one
TTITLE4=Skeeter Davis - The end of the world
TTITLE5=Skeeter Davis - Crying time
TTITLE6=Skeeter Davis - Gonna get along without you now
TTITLE7=Skeeter Davis - I can't stay mad at you
TTITLE8=Skeeter Davis - What does it take
TTITLE9=Roger Miller - King of the road
TTITLE10=Roger Miller - England swings
TTITLE11=Roger Miller - Husbands and wives
TTITLE12=Roger Miller - In the summertime
TTITLE13=Roger Miller - Walking in the sunshine
TTITLE14=Charlie Rich - Behind closed doors
TTITLE15=Charlie Rich - Lonely weekends
TTITLE16=Charlie Rich - She
TTITLE17=Charlie Rich - A Sunday kind of woman
TTITLE18=Charlie Rich - I take it on home
TTITLE19=Charlie Rich - Since I fell for you
EXTD=
EXTT0=
EXTT1=
EXTT2=
EXTT3=
EXTT4=
EXTT5=
EXTT6=
EXTT7=
EXTT8=
EXTT9=
EXTT10=
EXTT11=
EXTT12=
EXTT13=
EXTT14=
EXTT15=
EXTT16=
EXTT17=
EXTT18=
EXTT19=
PLAYORDER=
